# xmcd
#
# Track frame offsets:
#	183
#	18763
#	39263
#	63563
#	78800
#	95138
#	111825
#	134288
#	154788
#	166625
#
# Disc length: 2512 seconds
#
# Revision: 1
# Processed by: cddbd v1.5.2PL0 Copyright (c) Steve Scherf et al.
# Submitted via: audiograbber 1.83.01
#
DISCID=6f09ce0a
DTITLE=Lonnie Mack - Strike Like Lightning
DYEAR=1985
DGENRE=Blues
TTITLE0=Hound Dog Man
TTITLE1=Satisfy Susie
TTITLE2=Stop
TTITLE3=Long Way From Memphis
TTITLE4=Double Whammy
TTITLE5=Strike Like Lightning
TTITLE6=Falling Back In Love With You
TTITLE7=If You Have To Know
TTITLE8=You Ain't Got Me
TTITLE9=Oreo Cookie Blues
EXTD=
EXTT0=
EXTT1=
EXTT2=
EXTT3=
EXTT4=
EXTT5=
EXTT6=
EXTT7=
EXTT8=
EXTT9=
PLAYORDER=
